<svg width="66" height="48" viewBox="0 0 66 48" fill="none" xmlns="http://www.w3.org/2000/svg">
<path d="M66 0.675293H20.8116C19.2742 0.675293 17.8223 1.38255 16.8746 2.5931L3.17428 20.0931C1.75697 21.9035 1.75696 24.4471 3.17428 26.2575L16.8746 43.7575C17.8223 44.968 19.2742 45.6753 20.8116 45.6753H66V0.675293Z" fill="#3C7CDC"/>
<path d="M48.7338 20.9273V26.5466C48.7338 32.1658 46.4861 34.4135 40.8669 34.4135H34.1238C28.5045 34.4135 26.2568 32.1658 26.2568 26.5466V19.8035C26.2568 14.1842 28.5045 11.9365 34.1238 11.9365H39.743" stroke="white" stroke-width="1.5" stroke-linecap="round" stroke-linejoin="round"/>
<path d="M48.734 20.9273H44.2386C40.867 20.9273 39.7432 19.8035 39.7432 16.4319V11.9365L48.734 20.9273Z" fill="white" stroke="white" stroke-width="1.5" stroke-linecap="round" stroke-linejoin="round"/>
<path d="M31.4209 25.4231H42.858M31.4209 29.9185H42.858M31.4209 20.9277H35.9163" stroke="white" stroke-width="2" stroke-linecap="round" stroke-linejoin="round"/>
</svg>
