<svg version="1.2" baseProfile="tiny" xmlns="http://www.w3.org/2000/svg" viewBox="0 0 42 42" overflow="visible" xml:space="preserve">
    <path fill="#364073" d="M3 30.1c-.1.3-.1.6 0 .9.3-.1.5-.2.8-.3 1.8-.7 3.7-1.7 5.3-3-1.4-2.8-1-5.4.3-7.6 1.1-1.9 3-3.6 4.8-5.3.4-.4.9-.8 1.3-1.2l.1-.1 2.7-2.3c.5.8 1.3 1.7 2.4 2.5-.7 1-1.6 2-2.5 2.2-.8.2-1.8-.8-2.5-1.8-.2.1-.3.3-.5.4-2.1 1.9-4.2 3.7-5.3 5.7-1.2 2.1-1.6 4.4-.3 7.2 2.2-1.8 3.9-3.8 4.8-5.9.3-1 .9-.7.9.1 0 1.1.2 2.3.7 3.3.8 1.9 2.3 3.2 4.7 2.4.7-.3 1.2-.6 1.7-.8.2-.1.3-.2.5-.3 1.6-.8 3.2-1.7 4.2-2.4-.3-.8-.7-1.5-1.2-2-1-1.1-3-2.3-4.8-2.4-.8 0-1.5.3-2 .8-.3.3-.6.8-.7 1.3-.1.5-.1 1 .3 1.1.3.1.6-.1 1-.2.3-.1.6-.3.9-.5.2-.1.3-.2.4-.2.7-.3 1.4-.7 2.1-.6 1.5.1 2.7 1.3 3.1 2.6 0 .1-.2.2-.3.2 0-.1-.3-.5-.8-.7-.5-.2-1.2 0-1.6.2-.4.2-.8.4-1.3.7-.4.2-.9.5-1.4.7-.9.4-1.6.6-2.4-.1-.4-.3-.7-.8-.9-1.4-.5-1.7-.7-5 1.1-6.1 2-1.2 4.4-.1 6.1 1.2 1.4 1.1 2.6 2.9 3.2 4.5.1.1.1.3.1.4 0 .8 0 1.8-.1 2.6v.6c-.2.1-.4.2-.6.4l-2.1 1.2c-1.7 1-3.4 2.1-5.1 2.4-3.5.8-5.6-1.6-5.9-5.1-.7 1.5-1.9 3-3.3 4.3 1 1.4 2.8 2.8 4.6 3.4 1.3.5 2.8.5 4.2.3 2.6-.4 4.7-1.7 6.9-3.1.6-.4 1.2-.8 1.8-1.1 1.8-1.1 3.8-2.1 5.5-2v2.9c-.6 0-1.7.1-2.1.3-1.6.5-3 1.5-4.4 2.4-.2.2-.5.3-.7.5-3.2 2.2-6.5 3.5-10.5 3.1 0-1.3-.6-2-1.4-2.4-1.5-.8-3.2-2.2-4.2-3.7-1.3 1.1-2.8 2-4.1 2.6l1.4.4c.5.2 1 .6 1.1 1.1l1 3.7c.2.8 1.1 1.3 1.9 1.1l3.7-1c.5-.1 1.1 0 1.5.4l2.7 2.7c.6.6 1.6.6 2.2 0l2.7-2.7c.4-.4 1-.5 1.5-.4l3.7 1c.8.2 1.7-.3 1.9-1.1l1-3.7c.2-.5.6-1 1.1-1.1l3.7-1c.8-.2 1.3-1.1 1.1-1.9l-1-3.7c-.1-.5 0-1.1.4-1.5l2.7-2.7c.6-.6.6-1.6 0-2.2l-2.7-2.7c-.4-.4-.5-1-.4-1.5l1-3.7c.2-.8-.3-1.7-1.1-1.9l-3.7-1c-.5-.2-1-.6-1.1-1.1l-1-3.7c-.2-.8-1.1-1.3-1.9-1.1l-3.7 1c-.5.1-1.1 0-1.5-.4L22 1.5c-.1-.1-.3-.2-.4-.3 0 .6 0 1.2-.1 1.9-.1.4-.2.8-.3 1.1-.1.2-.1.4-.2.5-.1.2-.2.4-.2.5-.3.9-.1 1.9.2 2.8.8 2 3.4 4.2 5.7 6.2 1.4 1.2 2.7 2.3 3.5 3.3 1.8 2.1 2.9 4.1 2.2 6.5-.3 1.2-1.1 2.1-2.5 3.3l-.4-.3c1.2-1.1 1.4-2.4 1-3.9-.4-1.7-1.4-2.9-2.1-3.8-.8-1-2.1-2.1-3.5-3.2-2.4-2-5-4.2-5.7-6.3-.4-2.3-.2-3.7.8-5.1.4-.6.6-.9.8-1.5V3c.1-.8 0-1.6-.3-2.5-.2.1-.5.2-.7.4l-2.7 2.7c-.4.4-1 .5-1.5.4l-3.7-1c-.8-.2-1.7.3-1.9 1.1L9 7.8c-.2.5-.6 1-1.1 1.1l-3.7 1c-.8.2-1.3 1.1-1.1 1.9l1 3.7c.1.5 0 1.1-.4 1.5L1 19.7c-.6.6-.6 1.6 0 2.2l2.7 2.7c.4.4.5 1 .4 1.5l-1.1 4z"/>
</svg>