<svg viewBox="0 0 27 40" fill="none" xmlns="http://www.w3.org/2000/svg">
<path fill-rule="evenodd" clip-rule="evenodd" d="M16.3501 15.7856L14.6074 14.0782C14.5218 13.9943 14.4252 13.9285 14.3222 13.8808C14.094 13.7751 13.8349 13.7582 13.5969 13.8301C13.4442 13.8763 13.3001 13.9589 13.1784 14.0782L11.4357 15.7856C11.1805 16.0357 10.8131 16.1341 10.4671 16.0451L8.10418 15.4378C7.56593 15.2995 7.01589 15.617 6.86658 16.1523L6.21111 18.5023C6.11511 18.8465 5.84616 19.1154 5.50198 19.2115L3.152 19.8669C2.61669 20.0162 2.29912 20.5663 2.43747 21.1045L3.04481 23.4674C3.13376 23.8135 3.03531 24.1809 2.78524 24.4361L1.07784 26.1787C0.688898 26.5757 0.688899 27.2108 1.07784 27.6078L2.78524 29.3504C3.03532 29.6057 3.13376 29.9731 3.04481 30.3191L2.43747 32.682C2.38473 32.8872 2.39824 33.094 2.46479 33.2798C2.57284 33.5813 2.82072 33.8272 3.152 33.9196L5.50198 34.5751C5.84616 34.6711 6.11511 34.94 6.21111 35.2842L6.86658 37.6342C7.01589 38.1695 7.56593 38.4871 8.10418 38.3487L10.4671 37.7414C10.8131 37.6524 11.1805 37.7509 11.4357 38.0009L13.1784 39.7083C13.5754 40.0973 14.2105 40.0973 14.6074 39.7083L16.3501 38.0009C16.6053 37.7509 16.9727 37.6524 17.3188 37.7414L19.6817 38.3487C20.2199 38.4871 20.7699 38.1695 20.9193 37.6342L21.5747 35.2842C21.6707 34.94 21.9397 34.6711 22.2839 34.5751L24.6338 33.9196C25.1692 33.7703 25.4867 33.2202 25.3484 32.682L24.741 30.3191C24.6521 29.9731 24.7505 29.6057 25.0006 29.3504L26.708 27.6078C27.0969 27.2108 27.0969 26.5757 26.708 26.1787L25.0006 24.4361C24.7505 24.1809 24.6521 23.8135 24.741 23.4674L25.3484 21.1045C25.4867 20.5663 25.1692 20.0162 24.6338 19.8669L22.2839 19.2115C21.9397 19.1154 21.6707 18.8465 21.5747 18.5023L20.9193 16.1523C20.7699 15.617 20.2199 15.2995 19.6817 15.4378L17.3188 16.0451C16.9727 16.1341 16.6053 16.0357 16.3501 15.7856ZM19.1983 24.2291C19.2013 24.578 19.0672 24.914 18.8249 25.165L13.5031 30.4868C13.2536 30.7362 12.9153 30.8763 12.5625 30.8763C12.2097 30.8763 11.8713 30.7362 11.6219 30.4868L8.96096 27.8259C8.71861 27.5749 8.58451 27.2389 8.58754 26.89C8.59057 26.5412 8.73049 26.2075 8.97717 25.9608C9.22384 25.7141 9.55753 25.5742 9.90637 25.5712C10.2552 25.5682 10.5913 25.7023 10.8422 25.9446L12.5625 27.6649L16.9436 23.2837C17.1946 23.0414 17.5306 22.9073 17.8795 22.9103C18.2283 22.9133 18.562 23.0533 18.8087 23.2999C19.0553 23.5466 19.1953 23.8803 19.1983 24.2291Z" fill="#3C7CDC"/>
<path d="M18.8249 25.165C19.0672 24.914 19.2013 24.578 19.1983 24.2291C19.1953 23.8803 19.0553 23.5466 18.8087 23.2999C18.562 23.0533 18.2283 22.9133 17.8795 22.9103C17.5306 22.9073 17.1946 23.0414 16.9436 23.2837L12.5625 27.6649L10.8422 25.9446C10.5913 25.7023 10.2552 25.5682 9.90637 25.5712C9.55753 25.5742 9.22384 25.7141 8.97717 25.9608C8.73049 26.2075 8.59057 26.5412 8.58754 26.89C8.58451 27.2389 8.71861 27.5749 8.96096 27.8259L11.6219 30.4868C11.8713 30.7362 12.2097 30.8763 12.5625 30.8763C12.9153 30.8763 13.2536 30.7362 13.5031 30.4868L18.8249 25.165Z" fill="#3C7CDC"/>
<path d="M18.8249 25.165C19.0672 24.914 19.2013 24.578 19.1983 24.2291C19.1953 23.8803 19.0553 23.5466 18.8087 23.2999C18.562 23.0533 18.2283 22.9133 17.8795 22.9103C17.5306 22.9073 17.1946 23.0414 16.9436 23.2837L12.5625 27.6649L10.8422 25.9446C10.5913 25.7023 10.2552 25.5682 9.90637 25.5712C9.55753 25.5742 9.22384 25.7141 8.97717 25.9608C8.73049 26.2075 8.59057 26.5412 8.58754 26.89C8.58451 27.2389 8.71861 27.5749 8.96096 27.8259L11.6219 30.4868C11.8713 30.7362 12.2097 30.8763 12.5625 30.8763C12.9153 30.8763 13.2536 30.7362 13.5031 30.4868L18.8249 25.165Z" fill="white"/>
<path d="M17.7678 2C17.7678 0.895432 16.8724 0 15.7678 0H11.9458C10.8412 0 9.94576 0.895432 9.94576 2V14.1112C9.90496 17.2677 7.94448 14.3895 7.00331 15.8626C6.06913 17.3248 13.7779 17.3583 13.8923 17.3587C13.9446 17.3579 21.8816 17.2289 20.7419 15.8171C19.5985 14.4006 17.7678 17.382 17.7678 14.1112V2Z" fill="#3C7CDC"/>
</svg>
