<svg width="27" height="27" viewBox="0 0 27 27" fill="none" xmlns="http://www.w3.org/2000/svg">
<path fill-rule="evenodd" clip-rule="evenodd" d="M6.75 8.4375C5.8185 8.4375 5.0625 7.6815 5.0625 6.75C5.0625 5.8185 5.8185 5.0625 6.75 5.0625C7.6815 5.0625 8.4375 5.8185 8.4375 6.75C8.4375 7.6815 7.6815 8.4375 6.75 8.4375ZM6.75 3.375C4.88616 3.375 3.375 4.88616 3.375 6.75C3.375 8.61384 4.88616 10.125 6.75 10.125C8.61384 10.125 10.125 8.61384 10.125 6.75C10.125 4.88616 8.61384 3.375 6.75 3.375ZM25.3125 14.4517L20.25 9.28125L11.8623 17.8124L8.4375 14.3438L1.6875 20.5343V3.375C1.6875 2.4435 2.4435 1.6875 3.375 1.6875H23.625C24.5565 1.6875 25.3125 2.4435 25.3125 3.375V14.4517ZM25.3125 23.625C25.3125 24.5565 24.5565 25.3125 23.625 25.3125H19.2645L13.0477 19.0139L20.25 11.8117L25.3125 16.8742V23.625ZM3.375 25.3125C2.4435 25.3125 1.6875 24.5565 1.6875 23.625V22.8327L8.3911 16.8286L16.8759 25.3125H3.375ZM23.625 0H3.375C1.51116 0 0 1.51116 0 3.375V23.625C0 25.4888 1.51116 27 3.375 27H23.625C25.4888 27 27 25.4888 27 23.625V3.375C27 1.51116 25.4888 0 23.625 0Z" fill="black"/>
</svg>
