<svg width="30" height="35" viewBox="0 0 30 35" fill="none" xmlns="http://www.w3.org/2000/svg">
<path fill-rule="evenodd" clip-rule="evenodd" d="M2.63568 2.7465e-05C1.93303 -0.00582171 1.25671 0.278476 0.754472 0.790817C0.252232 1.30316 -0.0351125 2.0019 -0.0447917 2.7344V32.2C-0.0482865 32.5683 0.0186208 32.9336 0.152024 33.2746C0.285427 33.6156 0.482653 33.9254 0.732186 34.1861C0.98172 34.4468 1.27856 34.653 1.60538 34.7927C1.9322 34.9325 2.28245 35.0029 2.63568 35H26.6497C27.003 35.0029 27.3532 34.9325 27.68 34.7927C28.0069 34.653 28.3037 34.4468 28.5532 34.1861C28.8028 33.9254 29 33.6156 29.1334 33.2746C29.2668 32.9336 29.3337 32.5683 29.3302 32.2V11.0907L19.3952 2.7465e-05H2.63568Z" fill="#107CAD"/>
<path fill-rule="evenodd" clip-rule="evenodd" d="M29.33 11.1289V11.6758H22.6052C22.6052 11.6758 19.2953 10.9868 19.3897 8.00629C19.3897 8.00629 19.4998 11.1289 22.537 11.1289H29.33Z" fill="#084968"/>
<path opacity="0.5" fill-rule="evenodd" clip-rule="evenodd" d="M19.4004 0V7.9625C19.399 8.39369 19.4823 8.82062 19.645 9.21703C19.8078 9.61343 20.0466 9.97093 20.3468 10.2675C20.647 10.5641 21.0023 10.7935 21.3907 10.9417C21.7791 11.0898 22.1925 11.1535 22.6054 11.1289H29.3302L19.4004 0Z" fill="#90D0FE"/>
<path d="M7.42485 29.4547H5.85119C5.70094 29.4547 5.55684 29.3925 5.4506 29.2817C5.34435 29.1709 5.28467 29.0207 5.28467 28.8641V23.4773C5.28467 23.3207 5.34435 23.1705 5.4506 23.0597C5.55684 22.949 5.70094 22.8867 5.85119 22.8867H7.42485C8.25957 22.8867 9.0601 23.2324 9.65034 23.8478C10.2406 24.4631 10.5722 25.2977 10.5722 26.168C10.5722 27.0382 10.2406 27.8728 9.65034 28.4882C9.0601 29.1035 8.25957 29.4492 7.42485 29.4492V29.4547ZM7.42485 23.6195H6.05576V28.7273H7.42485C7.7487 28.7432 8.07214 28.688 8.37419 28.5652C8.67624 28.4424 8.95015 28.2547 9.17816 28.0144C9.40617 27.7741 9.58319 27.4866 9.69773 27.1703C9.81227 26.8541 9.86178 26.5164 9.84304 26.1789C9.86585 25.84 9.81924 25.4998 9.70629 25.1811C9.59334 24.8624 9.41665 24.5724 9.18794 24.3303C8.95922 24.0882 8.68373 23.8997 8.37975 23.7771C8.07577 23.6546 7.75027 23.6009 7.42485 23.6195ZM14.9889 29.575C14.5632 29.5864 14.1398 29.5055 13.7457 29.3373C13.3515 29.1691 12.9952 28.9174 12.6993 28.5981C12.4034 28.2788 12.1743 27.8989 12.0267 27.4825C11.879 27.066 11.816 26.6221 11.8416 26.1789C11.7904 25.7192 11.8331 25.2534 11.9669 24.812C12.1006 24.3707 12.3224 23.9639 12.6177 23.6183C12.9129 23.2727 13.275 22.9961 13.68 22.8067C14.0851 22.6173 14.524 22.5194 14.9679 22.5194C15.4119 22.5194 15.8508 22.6173 16.2558 22.8067C16.6609 22.9961 17.0229 23.2727 17.3182 23.6183C17.6135 23.9639 17.8352 24.3707 17.969 24.812C18.1028 25.2534 18.1454 25.7192 18.0943 26.1789C18.1187 26.6182 18.0563 27.058 17.9109 27.471C17.7655 27.8841 17.5402 28.2616 17.249 28.58C16.9578 28.8985 16.6069 29.1512 16.2181 29.3223C15.8293 29.4935 15.4109 29.5795 14.9889 29.575ZM14.9889 23.5102C13.5726 23.5102 12.6756 24.6422 12.6756 26.1789C12.6756 27.7156 13.5726 28.8477 14.9889 28.8477C16.4052 28.8477 17.3022 27.7047 17.3022 26.1789C17.3022 24.6531 16.4 23.5156 14.9889 23.5156V23.5102ZM24.6669 23.718C24.7356 23.7952 24.7732 23.897 24.7718 24.0023C24.7725 24.0533 24.7636 24.104 24.7455 24.1514C24.7274 24.1987 24.7006 24.242 24.6665 24.2785C24.6324 24.3151 24.5917 24.3443 24.5468 24.3645C24.5019 24.3846 24.4536 24.3954 24.4046 24.3961C24.3534 24.397 24.3027 24.3856 24.2563 24.3628C24.2099 24.3401 24.1691 24.3066 24.1371 24.2648C23.9402 24.0311 23.6983 23.8432 23.4272 23.7132C23.1561 23.5832 22.8618 23.514 22.5635 23.5102C22.2327 23.5081 21.9051 23.5767 21.6009 23.7119C21.2966 23.8471 21.0222 24.0459 20.7946 24.296C20.5669 24.5461 20.3909 24.8423 20.2774 25.1661C20.164 25.49 20.1154 25.8347 20.1348 26.1789C20.1169 26.5227 20.1666 26.8668 20.2806 27.1899C20.3947 27.5131 20.5707 27.8086 20.798 28.0584C21.0254 28.3082 21.2992 28.507 21.6027 28.6427C21.9063 28.7784 22.2332 28.8482 22.5635 28.8477C22.8618 28.8466 23.1564 28.7792 23.4278 28.65C23.6992 28.5208 23.941 28.3328 24.1371 28.0984C24.1706 28.0584 24.2116 28.0261 24.2577 28.0035C24.3037 27.9809 24.3538 27.9685 24.4046 27.9672C24.4543 27.9686 24.5031 27.9802 24.5484 28.0013C24.5937 28.0224 24.6346 28.0526 24.6687 28.0902C24.7028 28.1278 24.7294 28.172 24.7471 28.2203C24.7648 28.2687 24.7732 28.3202 24.7718 28.3719C24.7704 28.475 24.7331 28.5741 24.6669 28.6508C24.399 28.9497 24.0737 29.1865 23.7122 29.3458C23.3507 29.505 22.9611 29.5831 22.5687 29.575C21.7267 29.5398 20.9304 29.1663 20.3466 28.5327C19.7628 27.8992 19.4368 27.0547 19.4368 26.1762C19.4368 25.2976 19.7628 24.4532 20.3466 23.8196C20.9304 23.1861 21.7267 22.8126 22.5687 22.7774C22.9626 22.7689 23.3536 22.8484 23.7156 23.0107C24.0775 23.1729 24.4019 23.4141 24.6669 23.718Z" fill="white"/>
</svg>
