<svg width="30" height="35" viewBox="0 0 30 35" fill="none" xmlns="http://www.w3.org/2000/svg">
<g clip-path="url(#clip0_30_89)">
<path d="M2.73214 0C1.23214 0 0 1.25781 0 2.78906V32.2109C0 33.7422 1.23214 35 2.73214 35H27.2679C28.7679 35 30 33.7422 30 32.2109V11.1016L19.875 0H2.73214Z" fill="#B3292B"/>
<path d="M30.0001 11.1562V11.7031H23.1429C23.1429 11.7031 19.7679 10.9922 19.8751 8.03906C19.8751 8.03906 19.9822 11.1562 23.0893 11.1562H30.0001Z" fill="#9C2B30"/>
<path opacity="0.5" d="M19.875 0V7.98438C19.875 8.91406 20.4643 11.1562 23.1429 11.1562H30L19.875 0Z" fill="white"/>
<path d="M7.98207 26.7969H6.21422V29.0391C6.21422 29.2578 6.0535 29.4219 5.78564 29.4219C5.57136 29.4219 5.41064 29.2578 5.41064 29.0391V23.4609C5.41064 23.1328 5.6785 22.8594 5.99993 22.8594H7.98207C9.26779 22.8594 10.0178 23.7891 10.0178 24.8281C10.0178 25.9219 9.26779 26.7969 7.98207 26.7969ZM7.9285 23.5703H6.21422V26.0859H7.9285C8.6785 26.0859 9.21422 25.5938 9.21422 24.8281C9.21422 24.0625 8.6785 23.5703 7.9285 23.5703ZM13.4999 29.4219H11.8928C11.5714 29.4219 11.3035 29.1484 11.3035 28.8203V23.4609C11.3035 23.1328 11.5714 22.8594 11.8928 22.8594H13.4999C15.4821 22.8594 16.8214 24.2812 16.8214 26.1406C16.8214 28 15.5356 29.4219 13.4999 29.4219ZM13.4999 23.5703H12.1071V28.6563H13.4999C15.0535 28.6563 15.9642 27.5078 15.9642 26.0859C16.0178 24.7188 15.1071 23.5703 13.4999 23.5703ZM22.2321 23.5703H19.1249V25.7031H22.1785C22.3928 25.7031 22.4999 25.8672 22.4999 26.0859C22.4999 26.3047 22.3392 26.4141 22.1785 26.4141H19.1249V29.0391C19.1249 29.2578 18.9642 29.4219 18.6964 29.4219C18.4821 29.4219 18.3214 29.2578 18.3214 29.0391V23.4609C18.3214 23.1328 18.5892 22.8594 18.9106 22.8594H22.2321C22.4464 22.8594 22.5535 23.0234 22.5535 23.2422C22.6071 23.4063 22.4464 23.5703 22.2321 23.5703Z" fill="white"/>
<g clip-path="url(#clip1_30_89)">
<path d="M9.04741 10.5497C9.70489 10.5497 10.2379 9.994 10.2379 9.30852C10.2379 8.62306 9.70489 8.06738 9.04741 8.06738C8.38993 8.06738 7.85693 8.62306 7.85693 9.30852C7.85693 9.994 8.38993 10.5497 9.04741 10.5497Z" stroke="white" stroke-width="1.5" stroke-linecap="round" stroke-linejoin="round"/>
<path d="M8.19092 16.7553C11.5064 9.24643 14.2623 7.93083 17.3814 12.8023" stroke="white" stroke-width="1.5" stroke-linecap="round" stroke-linejoin="round"/>
<path d="M14.9999 5.58508H7.85703C6.54206 5.58508 5.47607 6.69643 5.47607 8.06735V14.273C5.47607 15.6439 6.54206 16.7553 7.85703 16.7553H14.9999C16.3148 16.7553 17.3808 15.6439 17.3808 14.273V8.06735C17.3808 6.69643 16.3148 5.58508 14.9999 5.58508Z" stroke="white" stroke-width="1.5" stroke-linecap="round" stroke-linejoin="round"/>
</g>
</g>
<defs>
<clipPath id="clip0_30_89">
<rect width="30" height="35" fill="white"/>
</clipPath>
<clipPath id="clip1_30_89">
<rect width="14.2857" height="14.8936" fill="white" transform="translate(4.28564 3.72339)"/>
</clipPath>
</defs>
</svg>
