<svg width="29" height="29" viewBox="0 0 29 29" fill="none" xmlns="http://www.w3.org/2000/svg">
<path d="M7.51025 7.51056C8.30312 6.71768 9.58826 6.71737 10.3815 7.51056L14.3134 11.4425L18.2453 7.51056C19.0381 6.71772 20.3233 6.71749 21.1165 7.51056C21.9097 8.30378 21.9094 9.58891 21.1165 10.3818L17.1846 14.3137L21.1165 18.2456C21.9097 19.0388 21.9094 20.3239 21.1165 21.1168C20.3236 21.9096 19.0385 21.91 18.2453 21.1168L14.3134 17.1849L10.3815 21.1168C9.5886 21.9097 8.30345 21.91 7.51025 21.1168C6.71719 20.3236 6.71745 19.0384 7.51025 18.2456L11.4421 14.3137L7.51025 10.3818C6.71712 9.58862 6.71753 8.30344 7.51025 7.51056Z" fill="black" stroke="white"/>
</svg>
