<svg width="15" height="16" viewBox="0 0 15 16" fill="none" xmlns="http://www.w3.org/2000/svg">
<path d="M7.5 0.944445C8.25586 0.944445 8.87488 1.56235 8.875 2.33312V6.61144H13.125C13.8809 6.61144 14.5 7.22924 14.5 8.00011C14.4999 8.77093 13.8809 9.38878 13.125 9.38878H8.875V13.6671C8.87477 14.4378 8.25579 15.0558 7.5 15.0558C6.74421 15.0558 6.12523 14.4378 6.125 13.6671V9.38878H1.875C1.1191 9.38878 0.500058 8.77093 0.5 8.00011C0.5 7.22924 1.11907 6.61144 1.875 6.61144H6.125V2.33312C6.12512 1.56235 6.74414 0.944445 7.5 0.944445Z" fill="currentColor" stroke="currentColor"/>
</svg>
