<svg width="25" height="25" viewBox="0 0 25 25" fill="none" xmlns="http://www.w3.org/2000/svg">
<g clip-path="url(#clip0_30_122)">
<path d="M11.0578 6.6154C11.0578 7.41196 11.7035 8.0577 12.5001 8.0577C13.2966 8.0577 13.9424 7.41196 13.9424 6.6154C13.9424 5.81883 13.2966 5.17309 12.5001 5.17309C11.7035 5.17309 11.0578 5.81883 11.0578 6.6154Z" fill="currentColor"/>
<path d="M12.9808 19.8269C12.7258 19.8269 12.4812 19.7256 12.3009 19.5453C12.1206 19.365 12.0193 19.1204 12.0193 18.8654L12.0193 12.6154L11.0577 12.6154C10.8027 12.6154 10.5581 12.5141 10.3778 12.3337C10.1975 12.1534 10.0962 11.9088 10.0962 11.6538C10.0962 11.3988 10.1975 11.1542 10.3778 10.9739C10.5581 10.7936 10.8027 10.6923 11.0577 10.6923L12.9808 10.6923C13.2358 10.6923 13.4804 10.7936 13.6607 10.9739C13.841 11.1542 13.9423 11.3988 13.9423 11.6538L13.9423 18.8654C13.9423 19.1204 13.841 19.365 13.6607 19.5453C13.4804 19.7256 13.2358 19.8269 12.9808 19.8269Z" fill="currentColor"/>
<path d="M12.5 25C10.0277 25 7.61099 24.2669 5.55538 22.8934C3.49976 21.5199 1.89761 19.5676 0.95151 17.2835C0.00541475 14.9995 -0.242127 12.4861 0.240189 10.0614C0.722504 7.63661 1.91301 5.40933 3.66117 3.66117C5.40933 1.91301 7.63661 0.722506 10.0614 0.24019C12.4861 -0.242125 14.9995 0.00541737 17.2836 0.951513C19.5676 1.89761 21.5199 3.49976 22.8934 5.55538C24.2669 7.61099 25 10.0277 25 12.5C25 15.8152 23.683 18.9946 21.3388 21.3388C18.9946 23.683 15.8152 25 12.5 25ZM12.5 1.92308C10.4081 1.92308 8.36315 2.54341 6.62378 3.70562C4.88442 4.86782 3.52874 6.51971 2.7282 8.45239C1.92766 10.3851 1.7182 12.5117 2.12631 14.5635C2.53443 16.6152 3.54178 18.4998 5.02099 19.979C6.5002 21.4582 8.38483 22.4656 10.4365 22.8737C12.4883 23.2818 14.6149 23.0723 16.5476 22.2718C18.4803 21.4713 20.1322 20.1156 21.2944 18.3762C22.4566 16.6369 23.0769 14.5919 23.0769 12.5C23.0769 9.69483 21.9626 7.00455 19.979 5.02099C17.9955 3.03744 15.3052 1.92308 12.5 1.92308Z" fill="currentColor"/>
</g>
<defs>
<clipPath id="clip0_30_122">
<rect width="25" height="25" fill="white"/>
</clipPath>
</defs>
</svg>
