<svg width="30" height="30" viewBox="0 0 30 30" fill="none" xmlns="http://www.w3.org/2000/svg">
<g clip-path="url(#clip0_30_113)">
<path fill-rule="evenodd" clip-rule="evenodd" d="M11.4274 26.982C9.33294 26.3584 7.46862 25.2007 5.99242 23.6668C6.54312 23.0141 6.875 22.1708 6.875 21.25C6.875 19.1789 5.19607 17.5 3.125 17.5C2.99972 17.5 2.87587 17.5061 2.75374 17.5181C2.58737 16.7047 2.5 15.8625 2.5 15C2.5 13.6934 2.70048 12.4335 3.07237 11.2496C3.08988 11.2499 3.10743 11.25 3.125 11.25C5.19607 11.25 6.875 9.57105 6.875 7.49999C6.875 6.90543 6.73662 6.34318 6.49037 5.84373C7.93594 4.4996 9.70031 3.49368 11.6576 2.95188C12.2777 4.16753 13.5417 5 15 5C16.4583 5 17.7223 4.16753 18.3424 2.95188C20.2997 3.49368 22.0641 4.4996 23.5096 5.84373C23.2634 6.34318 23.125 6.90543 23.125 7.49999C23.125 9.57105 24.8039 11.25 26.875 11.25C26.8926 11.25 26.9101 11.2499 26.9276 11.2496C27.2995 12.4335 27.5 13.6934 27.5 15C27.5 15.8625 27.4126 16.7047 27.2463 17.5181C27.1241 17.5061 27.0003 17.5 26.875 17.5C24.8039 17.5 23.125 19.1789 23.125 21.25C23.125 22.1708 23.4569 23.0141 24.0076 23.6668C22.5314 25.2007 20.6671 26.3584 18.5726 26.982C18.0892 25.4699 16.6725 24.375 15 24.375C13.3275 24.375 11.9108 25.4699 11.4274 26.982Z" stroke="currentColor" stroke-width="2.5" stroke-linejoin="round"/>
<path fill-rule="evenodd" clip-rule="evenodd" d="M15 19.375C17.4162 19.375 19.375 17.4163 19.375 15C19.375 12.5838 17.4162 10.625 15 10.625C12.5838 10.625 10.625 12.5838 10.625 15C10.625 17.4163 12.5838 19.375 15 19.375Z" stroke="currentColor" stroke-width="2.5" stroke-linejoin="round"/>
</g>
<defs>
<clipPath id="clip0_30_113">
<rect width="30" height="30" fill="white"/>
</clipPath>
</defs>
</svg>
