<svg width="20" height="32" viewBox="0 0 20 32" fill="none" xmlns="http://www.w3.org/2000/svg">
<path fill-rule="evenodd" clip-rule="evenodd" d="M17.6002 13.1986L17.0851 16.9589H10.8975V30.1199H7.13727V16.9589H1.49683V13.1986H7.13727V9.75228C7.13727 4.9711 10.074 1.88013 14.6221 1.88013C16.5699 1.88013 17.7845 1.98355 18.4858 2.07755L18.4313 5.63855L15.5396 5.64418C15.4606 5.63667 13.5767 5.49002 12.2174 6.73843C11.3413 7.54125 10.8975 8.69565 10.8975 10.1659V13.1986H17.6002V13.1986ZM13.479 8.13162C14.2197 7.4416 15.3741 7.5168 15.4588 7.52057L20.2832 7.51868L20.3866 0.560283L19.6609 0.381667C19.1946 0.267 17.7676 0 14.6221 0C9.02116 0 5.25712 3.9201 5.25712 9.75228V11.3185H-0.383301V18.839H5.25712V32H12.7777V18.839H18.7227L19.7549 11.3185H12.7777V10.1659C12.7777 9.2503 13.0146 8.56592 13.479 8.13162Z" fill="#737373"/>
</svg>
