<svg width="34" height="34" viewBox="0 0 34 34" fill="none" xmlns="http://www.w3.org/2000/svg">
<path fill-rule="evenodd" clip-rule="evenodd" d="M32.9963 16.6654C32.9963 25.317 25.9826 32.3307 17.3309 32.3307C8.67916 32.3307 1.66553 25.317 1.66553 16.6654C1.66553 8.01362 8.67916 1 17.3309 1C25.9826 1 32.9963 8.01362 32.9963 16.6654ZM17.8922 12.5649C16.3686 13.1986 13.3233 14.5103 8.75656 16.4999C8.015 16.7949 7.62653 17.0835 7.59116 17.3654C7.53139 17.8423 8.12841 18.03 8.9414 18.2856C9.05198 18.3204 9.16656 18.3564 9.28402 18.3945C10.0839 18.6546 11.1598 18.9588 11.7191 18.9708C12.2265 18.9818 12.7928 18.7727 13.418 18.3433C17.6848 15.463 19.8875 14.0073 20.0257 13.9758C20.1233 13.9537 20.2585 13.9258 20.3501 14.0073C20.4417 14.0887 20.4326 14.2429 20.4229 14.2842C20.3639 14.5364 18.0203 16.7152 16.8075 17.8426C16.4295 18.1941 16.1613 18.4434 16.1065 18.5004C15.9837 18.6279 15.8585 18.7485 15.7382 18.8645C14.9952 19.5808 14.4378 20.118 15.7691 20.9953C16.4087 21.4168 16.9206 21.7654 17.4313 22.1132C17.989 22.493 18.5453 22.8718 19.2651 23.3437C19.4484 23.4638 19.6235 23.5887 19.7941 23.7102C20.4431 24.173 21.0262 24.5887 21.7467 24.5223C22.1652 24.4839 22.5976 24.0903 22.8172 22.9163C23.3362 20.142 24.3564 14.1307 24.5921 11.6537C24.6128 11.4367 24.5868 11.159 24.5658 11.037C24.545 10.9151 24.5014 10.7414 24.3429 10.6128C24.1552 10.4605 23.8654 10.4284 23.7358 10.4305C23.1467 10.441 22.2426 10.7554 17.8922 12.5649Z" stroke="#737373" stroke-width="2" stroke-linejoin="round"/>
</svg>
