<svg width="30" height="30" viewBox="0 0 30 30" fill="none" xmlns="http://www.w3.org/2000/svg">
<path fill-rule="evenodd" clip-rule="evenodd" d="M15 0C6.71569 0 0 6.71569 0 15C0 17.46 0.593063 19.7844 1.64456 21.8353L0.0305625 28.6144C-0.0138512 28.8013 -0.00967908 28.9964 0.0426815 29.1813C0.095042 29.3661 0.193848 29.5345 0.329689 29.6703C0.465531 29.8062 0.633886 29.905 0.818722 29.9573C1.00356 30.0097 1.19872 30.0139 1.38562 29.9694L8.16469 28.3554C10.2156 29.4069 12.54 30 15 30C23.2843 30 30 23.2843 30 15C30 6.71569 23.2843 0 15 0ZM2.25 15C2.25 7.95844 7.95844 2.25 15 2.25C22.0416 2.25 27.75 7.95844 27.75 15C27.75 22.0416 22.0416 27.75 15 27.75C12.7718 27.75 10.68 27.1794 8.85994 26.1771C8.61501 26.0422 8.32868 26.0034 8.05669 26.0681L2.64281 27.3572L3.93188 21.9433C3.99662 21.6713 3.95778 21.385 3.82294 21.1401C2.82056 19.3198 2.25 17.2283 2.25 15ZM10.8793 19.1207C13.1246 21.3658 16.1184 22.872 19.458 23.2305C21.666 23.4673 23.25 21.6482 23.25 19.7586V18.4468C23.25 17.6824 23.0036 16.9384 22.5473 16.3251C22.091 15.7119 21.4492 15.262 20.7171 15.0424L20.6126 15.0111L20.5057 14.9901L19.0016 14.6938C18.5179 14.5686 18.0133 14.5468 17.5206 14.6297C17.0279 14.7127 16.5583 14.8986 16.1423 15.1753C15.6526 14.7896 15.2104 14.3474 14.8247 13.8577C15.1015 13.4417 15.2874 12.972 15.3704 12.4792C15.4534 11.9865 15.4316 11.4818 15.3064 10.998L15.0098 9.49406L14.9888 9.38719L14.9574 9.28275C14.7378 8.55068 14.288 7.90891 13.6748 7.45267C13.0616 6.99643 12.3177 6.75002 11.5534 6.75H10.2413C8.35181 6.75 6.5325 8.33362 6.76931 10.5418C7.12781 13.8812 8.63381 16.8754 10.8793 19.1207ZM17.1891 17.2121C17.3556 17.0457 17.564 16.9274 17.7924 16.8698C18.0207 16.8123 18.2603 16.8176 18.4858 16.8853L20.0707 17.1975C20.3394 17.2782 20.5748 17.4433 20.7422 17.6683C20.9096 17.8933 21 18.1663 21 18.4468V19.7586C21 20.4788 20.4142 21.0701 19.6982 20.9932C17.9091 20.8021 16.186 20.2105 14.6569 19.2623C13.8638 18.7708 13.1301 18.1894 12.4704 17.5296C11.8106 16.8699 11.2292 16.1362 10.7377 15.3431C9.7896 13.8139 9.19797 12.0908 9.00675 10.3016C8.92988 9.58556 9.52125 9 10.2413 9H11.5532C11.8336 9.00007 12.1065 9.09053 12.3315 9.25795C12.5564 9.42538 12.7214 9.66085 12.8019 9.92944L13.1145 11.514C13.1822 11.7395 13.1875 11.9792 13.13 12.2076C13.0725 12.4359 12.9542 12.6444 12.7877 12.8109L12.5777 13.0209C12.4387 13.1593 12.3388 13.332 12.288 13.5214C12.2183 13.7844 12.2498 14.0691 12.4011 14.3132C12.8129 14.9782 13.3002 15.5933 13.8533 16.1464C14.4063 16.6996 15.0215 17.1869 15.6866 17.5988C15.9308 17.7499 16.2152 17.7816 16.4784 17.7118C16.6678 17.661 16.8405 17.5611 16.9789 17.4221L17.1891 17.2121Z" fill="#737373"/>
</svg>
