<svg width="13" height="13" viewBox="0 0 13 13" fill="none" xmlns="http://www.w3.org/2000/svg">
<path d="M4.43217 5.59185H1.29212C0.974186 5.59156 0.669356 5.46515 0.44451 5.24038C0.219664 5.0156 0.0931668 4.71081 0.0927734 4.39288V1.29182C0.0931668 0.973891 0.219664 0.6691 0.44451 0.444324C0.669356 0.219547 0.974186 0.0931446 1.29212 0.0928497H4.43217C4.75004 0.0932429 5.05477 0.219689 5.27954 0.444455C5.50431 0.66922 5.63075 0.973955 5.63115 1.29182V4.39288C5.63075 4.71074 5.50431 5.01548 5.27954 5.24024C5.05477 5.46501 4.75004 5.59146 4.43217 5.59185ZM1.29212 1.02142C1.2204 1.02152 1.15164 1.05003 1.10089 1.10071C1.05014 1.15138 1.02154 1.2201 1.02134 1.29182V4.39288C1.02154 4.4646 1.05014 4.53332 1.10089 4.58399C1.15164 4.63467 1.2204 4.66318 1.29212 4.66328H4.43217C4.50386 4.66318 4.57258 4.63466 4.62327 4.58397C4.67395 4.53328 4.70248 4.46456 4.70257 4.39288V1.29182C4.70248 1.22014 4.67395 1.15142 4.62327 1.10073C4.57258 1.05004 4.50386 1.02152 4.43217 1.02142H1.29212Z" fill="#8D8D8D"/>
<path d="M4.44731 12.9071H1.30725C0.989288 12.9067 0.684459 12.7803 0.459624 12.5554C0.234789 12.3306 0.108303 12.0258 0.10791 11.7078V8.60711C0.108303 8.28918 0.234801 7.98439 0.459646 7.75962C0.684492 7.53484 0.989322 7.40844 1.30725 7.40814H4.44731C4.76505 7.40873 5.06959 7.53526 5.2942 7.76001C5.5188 7.98475 5.64515 8.28938 5.64554 8.60711V11.7078C5.64524 12.0256 5.51894 12.3303 5.29433 12.5551C5.06971 12.78 4.76511 12.9066 4.44731 12.9071ZM1.30725 8.33671C1.23553 8.33681 1.16678 8.36532 1.11603 8.416C1.06528 8.46668 1.03668 8.5354 1.03648 8.60711V11.7078C1.03658 11.7796 1.06514 11.8484 1.1159 11.8992C1.16666 11.9499 1.23547 11.9785 1.30725 11.9786H4.44731C4.51903 11.9784 4.58775 11.9498 4.63843 11.899C4.6891 11.8483 4.71761 11.7795 4.71771 11.7078V8.60711C4.71761 8.53543 4.68909 8.46671 4.6384 8.41602C4.58771 8.36533 4.51899 8.33681 4.44731 8.33671H1.30725Z" fill="#8D8D8D"/>
<path d="M11.7081 12.9071H8.568C8.25003 12.9067 7.9452 12.7803 7.72037 12.5554C7.49553 12.3306 7.36905 12.0258 7.36865 11.7078V8.60711C7.36905 8.28918 7.49554 7.98439 7.72039 7.75962C7.94523 7.53484 8.25006 7.40844 8.568 7.40814H11.7081C12.0259 7.40854 12.3307 7.53498 12.5554 7.75975C12.7802 7.98451 12.9066 8.28925 12.907 8.60711V11.7078C12.9067 12.0257 12.7803 12.3306 12.5556 12.5554C12.3308 12.7803 12.026 12.9067 11.7081 12.9071ZM8.568 8.33857C8.49628 8.33867 8.42752 8.36718 8.37677 8.41786C8.32602 8.46853 8.29742 8.53725 8.29722 8.60897V11.7097C8.29732 11.7814 8.32588 11.8503 8.37664 11.901C8.4274 11.9518 8.49621 11.9803 8.568 11.9804H11.7081C11.7798 11.9802 11.8485 11.9516 11.8992 11.9009C11.9498 11.8501 11.9784 11.7814 11.9785 11.7097V8.60711C11.9784 8.53543 11.9498 8.46671 11.8991 8.41602C11.8485 8.36533 11.7797 8.33681 11.7081 8.33671L8.568 8.33857Z" fill="#8D8D8D"/>
<path d="M10.1398 5.59186C9.59704 5.58782 9.06765 5.4232 8.61835 5.11874C8.16904 4.81428 7.81993 4.38362 7.61503 3.88104C7.41012 3.37846 7.3586 2.82647 7.46695 2.29465C7.5753 1.76283 7.83867 1.275 8.22387 0.892644C8.60906 0.510291 9.09884 0.250536 9.63144 0.146127C10.164 0.0417179 10.7156 0.0973286 11.2167 0.305948C11.7177 0.514568 12.1458 0.866858 12.4469 1.3184C12.7481 1.76995 12.9088 2.30054 12.9088 2.84328C12.9051 3.57467 12.6116 4.27476 12.0925 4.79002C11.5734 5.30528 10.8712 5.59364 10.1398 5.59186ZM10.1398 1.02328C9.7807 1.02732 9.43085 1.13747 9.13425 1.33989C8.83766 1.54231 8.60756 1.82794 8.47294 2.16084C8.33832 2.49374 8.30518 2.85902 8.37769 3.21071C8.45021 3.56239 8.62514 3.88477 8.88046 4.13727C9.13579 4.38976 9.4601 4.56108 9.81258 4.62966C10.1651 4.69825 10.5299 4.66103 10.8613 4.5227C11.1927 4.38437 11.4757 4.15111 11.6748 3.85227C11.8739 3.55343 11.9802 3.20237 11.9802 2.84328C11.9772 2.35779 11.7818 1.89329 11.4368 1.55173C11.0917 1.21017 10.6253 1.01945 10.1398 1.02143V1.02328Z" fill="#8D8D8D"/>
</svg>
