<svg width="14" height="14" viewBox="0 0 14 14" fill="none" xmlns="http://www.w3.org/2000/svg">
<path fill-rule="evenodd" clip-rule="evenodd" d="M2 0C0.491525 0 0 1 0 2C0.02381 3 0.542373 4 2 4H12L11 3H2C1 3 1 2 1 2C1 2 1 1 2 1H11L12 0H2ZM2 1.75V2.25H11V1.75H2ZM4 5C2.49153 5 2 6 2 7C2.02381 8 2.54237 9 4 9H14L13 8H4C3 8 3 7 3 7C3 7 3 6 4 6H13L14 5H4ZM4 6.75V7.25H13V6.75H4ZM2 10C0.491525 10 0 11 0 12C0.02381 13 0.542373 14 2 14H12L11 13H2C1 13 1 12 1 12C1 12 1 11 2 11H11L12 10H2ZM2 11.75V12.25H11V11.75H2Z" fill="#8D8D8D"/>
</svg>
