<svg width="13" height="13" viewBox="0 0 13 13" fill="none" xmlns="http://www.w3.org/2000/svg">
<g clip-path="url(#clip0_30_29)">
<path d="M10.7043 4.83093L8.1691 2.29574C8.10717 2.23382 8.00683 2.23382 7.94492 2.29574L2.10309 8.13758C2.04116 8.19951 2.04116 8.29988 2.10309 8.36175L4.63827 10.8969C4.7002 10.9589 4.80054 10.9589 4.86244 10.8969L10.7043 5.0551C10.7662 4.9932 10.7662 4.89285 10.7043 4.83093Z" fill="#8D8D8D"/>
<path d="M12.8605 2.22605L10.7737 0.139237C10.5881 -0.0463691 10.2868 -0.0464961 10.1012 0.139237L8.84137 1.39902C8.77944 1.46095 8.77944 1.56129 8.84137 1.62319L11.3766 4.15838C11.4385 4.22025 11.5388 4.22025 11.6007 4.15838L12.8605 2.89859C13.0462 2.71291 13.0462 2.41178 12.8605 2.22605Z" fill="#8D8D8D"/>
<path d="M12.9018 12.4696C12.875 12.227 12.6608 12.0481 12.4167 12.0481H2.83438L3.74992 11.6632C3.85371 11.6195 3.8802 11.4846 3.80055 11.4049L1.59526 9.19965C1.51561 9.12005 1.38069 9.14648 1.33704 9.25027C1.32595 9.27671 0.0520442 12.3058 0.0412531 12.3324C-0.106394 12.6678 0.164525 13.0182 0.501002 12.9993H12.4292C12.7097 12.9993 12.9334 12.7565 12.9018 12.4696Z" fill="#8D8D8D"/>
</g>
<defs>
<clipPath id="clip0_30_29">
<rect width="13" height="13" fill="white"/>
</clipPath>
</defs>
</svg>
